<svg xmlns="http://www.w3.org/2000/svg" version="1.1" xmlns:xlink="http://www.w3.org/1999/xlink" xmlns:svgjs="http://svgjs.com/svgjs" width="1920" height="1080" preserveAspectRatio="none" viewBox="0 0 1920 1080"><g mask="url(&quot;#SvgjsMask1025&quot;)" fill="none"><rect width="1920" height="1080" x="0" y="0" fill="#0e2a47"></rect><g transform="translate(0, 0)" stroke-linecap="round"><path d="M340 309.53 L340 770.47" stroke-width="15" stroke="#dd1133"></path><path d="M360 463.4 L360 493.4" stroke-width="15" stroke="#dd1133"></path><path d="M360 515.9 L360 545.9" stroke-width="15" stroke="#3a7cc3"></path><path d="M360 568.4 L360 616.6" stroke-width="15" stroke="#3a7cc3"></path><path d="M380 297.88 L380 782.12" stroke-width="15" stroke="#3a7cc3"></path><path d="M400 199.52 L400 880.48" stroke-width="15" stroke="#dd1133"></path><path d="M420 248.87 L420 458.87" stroke-width="15" stroke="#dd1133"></path><path d="M420 481.37 L420 751.37" stroke-width="15" stroke="#3a7cc3"></path><path d="M420 773.87 L420 831.13" stroke-width="15" stroke="rgba(129, 44, 229, 1)"></path><path d="M440 235.33 L440 580.33" stroke-width="15" stroke="#dd1133"></path><path d="M440 602.83 L440 782.83" stroke-width="15" stroke="#dd1133"></path><path d="M440 805.33 L440 844.66" stroke-width="15" stroke="rgba(129, 44, 229, 1)"></path><path d="M460 485 L460 500" stroke-width="15" stroke="#dd1133"></path><path d="M460 522.5 L460 537.5" stroke-width="15" stroke="#dd1133"></path><path d="M460 560 L460 595" stroke-width="15" stroke="#3a7cc3"></path><path d="M480 460.06 L480 520.06" stroke-width="15" stroke="rgba(129, 44, 229, 1)"></path><path d="M480 542.56 L480 557.56" stroke-width="15" stroke="#3a7cc3"></path><path d="M480 580.06 L480 619.94" stroke-width="15" stroke="#3a7cc3"></path><path d="M500 381.16 L500 471.16" stroke-width="15" stroke="rgba(129, 44, 229, 1)"></path><path d="M500 493.66 L500 553.6600000000001" stroke-width="15" stroke="#dd1133"></path><path d="M500 576.1600000000001 L500 698.84" stroke-width="15" stroke="#3a7cc3"></path><path d="M520 460.93 L520 490.93" stroke-width="15" stroke="rgba(129, 44, 229, 1)"></path><path d="M520 513.4300000000001 L520 543.4300000000001" stroke-width="15" stroke="#3a7cc3"></path><path d="M520 565.9300000000001 L520 619.08" stroke-width="15" stroke="rgba(129, 44, 229, 1)"></path><path d="M540 455.31 L540 500.31" stroke-width="15" stroke="#dd1133"></path><path d="M540 522.81 L540 552.81" stroke-width="15" stroke="rgba(129, 44, 229, 1)"></path><path d="M540 575.31 L540 624.69" stroke-width="15" stroke="rgba(129, 44, 229, 1)"></path><path d="M560 398.69 L560 458.69" stroke-width="15" stroke="#3a7cc3"></path><path d="M560 481.19 L560 526.19" stroke-width="15" stroke="#3a7cc3"></path><path d="M560 548.69 L560 681.31" stroke-width="15" stroke="#3a7cc3"></path><path d="M580 287.25 L580 377.25" stroke-width="15" stroke="#dd1133"></path><path d="M580 399.75 L580 684.75" stroke-width="15" stroke="#3a7cc3"></path><path d="M580 707.25 L580 792.75" stroke-width="15" stroke="#3a7cc3"></path><path d="M600 199.58 L600 784.58" stroke-width="15" stroke="rgba(129, 44, 229, 1)"></path><path d="M600 807.08 L600 880.41" stroke-width="15" stroke="#3a7cc3"></path><path d="M620 426.38 L620 456.38" stroke-width="15" stroke="#3a7cc3"></path><path d="M620 478.88 L620 523.88" stroke-width="15" stroke="rgba(129, 44, 229, 1)"></path><path d="M620 546.38 L620 653.62" stroke-width="15" stroke="rgba(129, 44, 229, 1)"></path><path d="M640 338.85 L640 578.85" stroke-width="15" stroke="#3a7cc3"></path><path d="M640 601.35 L640 631.35" stroke-width="15" stroke="#dd1133"></path><path d="M640 653.85 L640 741.15" stroke-width="15" stroke="#dd1133"></path><path d="M660 349.92 L660 379.92" stroke-width="15" stroke="rgba(129, 44, 229, 1)"></path><path d="M660 402.42 L660 642.4200000000001" stroke-width="15" stroke="rgba(129, 44, 229, 1)"></path><path d="M660 664.9200000000001 L660 730.08" stroke-width="15" stroke="rgba(129, 44, 229, 1)"></path><path d="M680 466.54 L680 526.54" stroke-width="15" stroke="#dd1133"></path><path d="M680 549.04 L680 613.46" stroke-width="15" stroke="#3a7cc3"></path><path d="M700 233.95 L700 698.95" stroke-width="15" stroke="rgba(129, 44, 229, 1)"></path><path d="M700 721.45 L700 846.05" stroke-width="15" stroke="#3a7cc3"></path><path d="M720 394.22 L720 454.22" stroke-width="15" stroke="#3a7cc3"></path><path d="M720 476.72 L720 581.72" stroke-width="15" stroke="#3a7cc3"></path><path d="M720 604.22 L720 685.78" stroke-width="15" stroke="#dd1133"></path><path d="M740 300.65 L740 450.65" stroke-width="15" stroke="rgba(129, 44, 229, 1)"></path><path d="M740 473.15 L740 728.15" stroke-width="15" stroke="#3a7cc3"></path><path d="M740 750.65 L740 779.35" stroke-width="15" stroke="#3a7cc3"></path><path d="M760 270.9 L760 405.9" stroke-width="15" stroke="#3a7cc3"></path><path d="M760 428.4 L760 653.4" stroke-width="15" stroke="#dd1133"></path><path d="M760 675.9 L760 809.1" stroke-width="15" stroke="#dd1133"></path><path d="M780 362.34 L780 717.66" stroke-width="15" stroke="#dd1133"></path><path d="M800 286.94 L800 661.94" stroke-width="15" stroke="rgba(129, 44, 229, 1)"></path><path d="M800 684.44 L800 793.06" stroke-width="15" stroke="#3a7cc3"></path><path d="M820 479.27 L820 524.27" stroke-width="15" stroke="#dd1133"></path><path d="M820 546.77 L820 561.77" stroke-width="15" stroke="#dd1133"></path><path d="M820 584.27 L820 600.73" stroke-width="15" stroke="rgba(129, 44, 229, 1)"></path><path d="M840 401.39 L840 678.61" stroke-width="15" stroke="#3a7cc3"></path><path d="M860 444.37 L860 534.37" stroke-width="15" stroke="#3a7cc3"></path><path d="M860 556.87 L860 571.87" stroke-width="15" stroke="rgba(129, 44, 229, 1)"></path><path d="M860 594.37 L860 635.63" stroke-width="15" stroke="rgba(129, 44, 229, 1)"></path><path d="M880 431.39 L880 536.39" stroke-width="15" stroke="rgba(129, 44, 229, 1)"></path><path d="M880 558.89 L880 588.89" stroke-width="15" stroke="rgba(129, 44, 229, 1)"></path><path d="M880 611.39 L880 648.61" stroke-width="15" stroke="rgba(129, 44, 229, 1)"></path><path d="M900 484.63 L900 499.63" stroke-width="15" stroke="#dd1133"></path><path d="M900 522.13 L900 537.13" stroke-width="15" stroke="rgba(129, 44, 229, 1)"></path><path d="M900 559.63 L900 595.38" stroke-width="15" stroke="#dd1133"></path><path d="M920 459.88 L920 620.12" stroke-width="15" stroke="#3a7cc3"></path><path d="M940 494.78 L940 509.78" stroke-width="15" stroke="#dd1133"></path><path d="M940 532.28 L940 547.28" stroke-width="15" stroke="#dd1133"></path><path d="M940 569.78 L940 585.22" stroke-width="15" stroke="#3a7cc3"></path><path d="M960 273.45 L960 498.45" stroke-width="15" stroke="#dd1133"></path><path d="M960 520.95 L960 806.55" stroke-width="15" stroke="#3a7cc3"></path><path d="M980 481.23 L980 526.23" stroke-width="15" stroke="#3a7cc3"></path><path d="M980 548.73 L980 598.77" stroke-width="15" stroke="#dd1133"></path><path d="M1000 489.97 L1000 504.97" stroke-width="15" stroke="#3a7cc3"></path><path d="M1000 527.47 L1000 542.47" stroke-width="15" stroke="#3a7cc3"></path><path d="M1000 564.97 L1000 590.03" stroke-width="15" stroke="#3a7cc3"></path><path d="M1020 437.7 L1020 467.7" stroke-width="15" stroke="#3a7cc3"></path><path d="M1020 490.2 L1020 595.2" stroke-width="15" stroke="rgba(129, 44, 229, 1)"></path><path d="M1020 617.7 L1020 642.3" stroke-width="15" stroke="rgba(129, 44, 229, 1)"></path><path d="M1040 314.88 L1040 674.88" stroke-width="15" stroke="#3a7cc3"></path><path d="M1040 697.38 L1040 727.38" stroke-width="15" stroke="#3a7cc3"></path><path d="M1040 749.88 L1040 765.13" stroke-width="15" stroke="#3a7cc3"></path><path d="M1060 361.63 L1060 586.63" stroke-width="15" stroke="#dd1133"></path><path d="M1060 609.13 L1060 654.13" stroke-width="15" stroke="rgba(129, 44, 229, 1)"></path><path d="M1060 676.63 L1060 718.38" stroke-width="15" stroke="rgba(129, 44, 229, 1)"></path><path d="M1080 424.56 L1080 499.56" stroke-width="15" stroke="#dd1133"></path><path d="M1080 522.06 L1080 582.06" stroke-width="15" stroke="#3a7cc3"></path><path d="M1080 604.56 L1080 655.44" stroke-width="15" stroke="#3a7cc3"></path><path d="M1100 269.08 L1100 569.0799999999999" stroke-width="15" stroke="#3a7cc3"></path><path d="M1100 591.5799999999999 L1100 810.92" stroke-width="15" stroke="#3a7cc3"></path><path d="M1120 316.96 L1120 646.96" stroke-width="15" stroke="rgba(129, 44, 229, 1)"></path><path d="M1120 669.46 L1120 763.04" stroke-width="15" stroke="#dd1133"></path><path d="M1140 369.84 L1140 444.84" stroke-width="15" stroke="#3a7cc3"></path><path d="M1140 467.34 L1140 710.16" stroke-width="15" stroke="#dd1133"></path><path d="M1160 427.19 L1160 442.19" stroke-width="15" stroke="rgba(129, 44, 229, 1)"></path><path d="M1160 464.69 L1160 614.69" stroke-width="15" stroke="#dd1133"></path><path d="M1160 637.19 L1160 652.81" stroke-width="15" stroke="#dd1133"></path><path d="M1180 226.5 L1180 691.5" stroke-width="15" stroke="#3a7cc3"></path><path d="M1180 714 L1180 853.5" stroke-width="15" stroke="#3a7cc3"></path><path d="M1200 477.29 L1200 602.71" stroke-width="15" stroke="#3a7cc3"></path><path d="M1220 461.57 L1220 551.5699999999999" stroke-width="15" stroke="rgba(129, 44, 229, 1)"></path><path d="M1220 574.0699999999999 L1220 618.43" stroke-width="15" stroke="#dd1133"></path><path d="M1240 333.25 L1240 363.25" stroke-width="15" stroke="#dd1133"></path><path d="M1240 385.75 L1240 670.75" stroke-width="15" stroke="#dd1133"></path><path d="M1240 693.25 L1240 746.75" stroke-width="15" stroke="rgba(129, 44, 229, 1)"></path><path d="M1260 342.19 L1260 507.19" stroke-width="15" stroke="#dd1133"></path><path d="M1260 529.69 L1260 589.69" stroke-width="15" stroke="#dd1133"></path><path d="M1260 612.19 L1260 737.82" stroke-width="15" stroke="rgba(129, 44, 229, 1)"></path><path d="M1280 192.96 L1280 717.96" stroke-width="15" stroke="#dd1133"></path><path d="M1280 740.46 L1280 887.04" stroke-width="15" stroke="rgba(129, 44, 229, 1)"></path><path d="M1300 333.81 L1300 498.81" stroke-width="15" stroke="rgba(129, 44, 229, 1)"></path><path d="M1300 521.31 L1300 746.18" stroke-width="15" stroke="#3a7cc3"></path><path d="M1320 492.18 L1320 507.18" stroke-width="15" stroke="#dd1133"></path><path d="M1320 529.6800000000001 L1320 544.6800000000001" stroke-width="15" stroke="rgba(129, 44, 229, 1)"></path><path d="M1320 567.1800000000001 L1320 587.82" stroke-width="15" stroke="#dd1133"></path><path d="M1340 507.95 L1340 522.95" stroke-width="15" stroke="rgba(129, 44, 229, 1)"></path><path d="M1340 545.45 L1340 572.05" stroke-width="15" stroke="rgba(129, 44, 229, 1)"></path><path d="M1360 511.34 L1360 568.66" stroke-width="15" stroke="#3a7cc3"></path><path d="M1380 254.65 L1380 825.35" stroke-width="15" stroke="rgba(129, 44, 229, 1)"></path><path d="M1400 472.06 L1400 532.06" stroke-width="15" stroke="#dd1133"></path><path d="M1400 554.56 L1400 569.56" stroke-width="15" stroke="#3a7cc3"></path><path d="M1400 592.06 L1400 607.94" stroke-width="15" stroke="rgba(129, 44, 229, 1)"></path><path d="M1420 300.96 L1420 690.96" stroke-width="15" stroke="rgba(129, 44, 229, 1)"></path><path d="M1420 713.46 L1420 779.04" stroke-width="15" stroke="rgba(129, 44, 229, 1)"></path><path d="M1440 506.25 L1440 521.25" stroke-width="15" stroke="#dd1133"></path><path d="M1440 543.75 L1440 573.75" stroke-width="15" stroke="#3a7cc3"></path><path d="M1460 307.01 L1460 772.99" stroke-width="15" stroke="#dd1133"></path><path d="M1480 461.87 L1480 476.87" stroke-width="15" stroke="#dd1133"></path><path d="M1480 499.37 L1480 574.37" stroke-width="15" stroke="rgba(129, 44, 229, 1)"></path><path d="M1480 596.87 L1480 618.13" stroke-width="15" stroke="rgba(129, 44, 229, 1)"></path><path d="M1500 429.56 L1500 564.56" stroke-width="15" stroke="#dd1133"></path><path d="M1500 587.06 L1500 602.06" stroke-width="15" stroke="#dd1133"></path><path d="M1500 624.56 L1500 650.44" stroke-width="15" stroke="#3a7cc3"></path><path d="M1520 414.46 L1520 474.46" stroke-width="15" stroke="rgba(129, 44, 229, 1)"></path><path d="M1520 496.96 L1520 556.96" stroke-width="15" stroke="#3a7cc3"></path><path d="M1520 579.46 L1520 665.54" stroke-width="15" stroke="#dd1133"></path><path d="M1540 334.49 L1540 559.49" stroke-width="15" stroke="#dd1133"></path><path d="M1540 581.99 L1540 656.99" stroke-width="15" stroke="#3a7cc3"></path><path d="M1540 679.49 L1540 745.51" stroke-width="15" stroke="#3a7cc3"></path><path d="M1560 369.48 L1560 549.48" stroke-width="15" stroke="#dd1133"></path><path d="M1560 571.98 L1560 631.98" stroke-width="15" stroke="#3a7cc3"></path><path d="M1560 654.48 L1560 710.52" stroke-width="15" stroke="#3a7cc3"></path><path d="M1580 437.45 L1580 482.45" stroke-width="15" stroke="rgba(129, 44, 229, 1)"></path><path d="M1580 504.95 L1580 642.54" stroke-width="15" stroke="#dd1133"></path></g></g><defs><mask id="SvgjsMask1025"><rect width="1920" height="1080" fill="#ffffff"></rect></mask></defs></svg>